<svg width="68" height="68" viewBox="0 0 68 68" fill="none" xmlns="http://www.w3.org/2000/svg">
<rect width="68" height="68" rx="34" fill="white"/>
<path d="M10 33C10 22.1584 10 16.736 13.368 13.368C16.736 10 22.16 10 33 10H35C45.8416 10 51.264 10 54.632 13.368C58 16.736 58 22.16 58 33V35C58 45.8416 58 51.264 54.632 54.632C51.264 58 45.84 58 35 58H33C22.1584 58 16.736 58 13.368 54.632C10 51.264 10 45.84 10 35V33Z" fill="#0050FF"/>
<path fill-rule="evenodd" clip-rule="evenodd" d="M23 25H19.5008C18.5008 25 18.3008 25.4704 18.3008 25.9904C18.3008 26.9168 19.4864 31.5152 23.8256 37.5952C26.7168 41.7488 30.792 44 34.4992 44C36.7248 44 37 43.4992 37 42.64V39.5008C37 38.5008 37.2112 38.3008 37.9152 38.3008C38.4352 38.3008 39.3232 38.56 41.4016 40.5616C43.7744 42.936 44.1648 44 45.4992 44H49C50 44 50.5008 43.4992 50.2112 42.512C49.896 41.5296 48.7632 40.1024 47.2592 38.4112C46.4432 37.448 45.2208 36.4096 44.8496 35.8896C44.3296 35.2224 44.4784 34.9264 44.8496 34.3328C44.8496 34.3328 49.1136 28.3264 49.5584 26.2864C49.7824 25.5456 49.5584 25 48.4992 25H45C44.1104 25 43.6992 25.4704 43.4768 25.9904C43.4768 25.9904 41.6976 30.328 39.176 33.1456C38.36 33.9616 37.9888 34.2224 37.544 34.2224C37.3216 34.2224 37 33.9616 37 33.2208V26.2864C37 25.3968 36.7424 25 36 25H30.4992C29.944 25 29.6096 25.4128 29.6096 25.8048C29.6096 26.648 30.8704 26.8432 31 29.216V34.3696C31 35.5008 30.7968 35.7056 30.3504 35.7056C29.1648 35.7056 26.2784 31.3472 24.5664 26.3616C24.2304 25.392 23.8944 25 23 25Z" fill="white"/>
</svg>
