<svg width="50" height="50" viewBox="0 0 50 50" fill="none" xmlns="http://www.w3.org/2000/svg">
<path d="M18.75 9.375C18.75 11.8614 17.7623 14.246 16.0041 16.0041C14.246 17.7623 11.8614 18.75 9.375 18.75C6.8886 18.75 4.50403 17.7623 2.74587 16.0041C0.98772 14.246 0 11.8614 0 9.375C0 6.8886 0.98772 4.50403 2.74587 2.74587C4.50403 0.98772 6.8886 0 9.375 0C11.8614 0 14.246 0.98772 16.0041 2.74587C17.7623 4.50403 18.75 6.8886 18.75 9.375Z" fill="black"/>
<path d="M28.125 18.75C25.6386 18.75 23.254 17.7623 21.4959 16.0041C19.7377 14.246 18.75 11.8614 18.75 9.375C18.75 6.8886 19.7377 4.50403 21.4959 2.74587C23.254 0.98772 25.6386 0 28.125 0C30.6114 0 32.996 0.98772 34.7541 2.74587C36.5123 4.50403 37.5 6.8886 37.5 9.375C37.5 11.8614 36.5123 14.246 34.7541 16.0041C32.996 17.7623 30.6114 18.75 28.125 18.75Z" fill="black"/>
<path d="M28.125 18.75H29.6875C31.2034 18.7498 32.6677 19.3006 33.8077 20.2998C34.9478 21.2989 35.6858 22.6784 35.8844 24.1812L45.6031 19.8625C46.0788 19.6505 46.6 19.5608 47.1192 19.6015C47.6384 19.6422 48.1392 19.812 48.5761 20.0955C49.0129 20.379 49.372 20.7672 49.6207 21.2248C49.8694 21.6823 49.9998 22.1948 50 22.7156V46.0344C49.9995 46.5548 49.8691 47.0668 49.6206 47.524C49.3721 47.9812 49.0134 48.3691 48.5769 48.6525C48.1405 48.936 47.6402 49.1059 47.1214 49.1469C46.6026 49.1879 46.0818 49.0988 45.6063 48.8875L35.8844 44.5688C35.6858 46.0716 34.9478 47.4511 33.8077 48.4502C32.6677 49.4494 31.2034 50.0002 29.6875 50H6.25C4.5924 50 3.00269 49.3415 1.83058 48.1694C0.65848 46.9973 0 45.4076 0 43.75V25C0 23.3424 0.65848 21.7527 1.83058 20.5806C3.00269 19.4085 4.5924 18.75 6.25 18.75H28.125Z" fill="black"/>
</svg>
