<svg width="50" height="50" viewBox="0 0 50 50" fill="none" xmlns="http://www.w3.org/2000/svg">
<path fill-rule="evenodd" clip-rule="evenodd" d="M50 25C50 38.8062 38.8062 50 25 50C11.1937 50 0 38.8062 0 25C0 11.1937 11.1937 0 25 0C38.8062 0 50 11.1937 50 25ZM12.5 33.75H31.25V20C31.25 19.5075 31.153 19.0199 30.9645 18.5649C30.7761 18.11 30.4999 17.6966 30.1516 17.3483C29.8034 17.0001 29.39 16.7239 28.9351 16.5355C28.4801 16.347 27.9925 16.25 27.5 16.25H8.75V30C8.75 30.9946 9.14509 31.9484 9.84835 32.6516C10.1966 32.9999 10.61 33.2761 11.0649 33.4645C11.5199 33.653 12.0075 33.75 12.5 33.75ZM33.75 28.75L41.25 33.75V16.25L33.75 21.25V28.75Z" fill="black"/>
</svg>
