<?xml version="1.0" encoding="UTF-8"?>
<!DOCTYPE svg PUBLIC "-//W3C//DTD SVG 1.1//EN" "http://www.w3.org/Graphics/SVG/1.1/DTD/svg11.dtd">
<!-- Creator: CorelDRAW 2018 (64-Bit) -->
<svg xmlns="http://www.w3.org/2000/svg" xml:space="preserve" width="883.638mm" height="343.853mm" version="1.1" style="shape-rendering:geometricPrecision; text-rendering:geometricPrecision; image-rendering:optimizeQuality; fill-rule:evenodd; clip-rule:evenodd"
viewBox="0 0 88363.68 34385.2"
 xmlns:xlink="http://www.w3.org/1999/xlink">
 <defs>
  <style type="text/css">
   <![CDATA[
    .fil1 {fill:#EC2828}
    .fil0 {fill:white}
    .fil3 {fill:#EC2828;fill-rule:nonzero}
    .fil2 {fill:white;fill-rule:nonzero}
   ]]>
  </style>
 </defs>
 <g id="Слой_x0020_1">
  <metadata id="CorelCorpID_0Corel-Layer"/>
  <g id="_2917217711920">
   <path class="fil0" d="M22643.85 23169.53l-6044.04 0 0 -5813.03c-1931.94,1646.3 -1724.6,3815.27 -1845.48,4288.47l-6008.76 -665.92c188.85,-751.53 -148.84,-4187.38 3154.94,-7593.55 -1798.16,239.61 -2850.37,1418.74 -3264.21,1692.76l-3777.84 -4719.94c437.92,-284.35 2310.93,-2271.36 5740.33,-2874.89 -704.21,-288.22 -868.11,-198.31 -1749.98,-325.65l666.78 -6006.61c483.95,113.57 3838.5,19.36 7084.22,2664.11l0 -3815.27 6044.04 0 0 3815.27c3236.68,-2637.44 6608.44,-2552.27 7083.79,-2664.11l667.21 6006.61c-935.21,134.65 -1054.37,40.44 -1751.27,325.65 3411.33,598.38 5259.82,2562.16 5741.19,2874.89l-3777.84 4719.94c-502.02,-332.96 -1420.89,-1446.7 -3264.21,-1692.76 3070.19,3165.26 3063.74,7230.48 3154.94,7593.55l-6008.76 665.92c-114.86,-449.54 68.4,-2657.66 -1845.48,-4288.47l0 5813.03 0.43 0zm0 0z"/>
   <path class="fil1" d="M17785.39 34385.2l-6044.04 0 0 -5813.03c-1931.94,1646.3 -1724.6,3815.27 -1845.48,4288.47l-6008.76 -665.92c188.85,-751.53 -148.84,-4187.38 3154.94,-7593.55 -1798.16,239.61 -2850.8,1418.74 -3264.21,1692.76l-3777.84 -4719.94c437.92,-284.78 2311.36,-2271.36 5740.33,-2874.89 -704.21,-288.22 -868.11,-198.31 -1749.98,-325.65l667.21 -6007.04c483.52,114 3838.07,19.36 7083.79,2664.11l0 -3814.84 6044.04 0 0 3815.27c3236.68,-2637.44 6608.87,-2552.27 7084.22,-2664.11l666.78 6006.61c-935.21,134.65 -1054.37,40.44 -1750.84,325.65 3411.33,598.38 5259.39,2562.16 5741.19,2874.89l-3777.84 4719.94c-502.02,-332.96 -1420.89,-1446.7 -3264.21,-1692.76 3070.19,3165.26 3063.74,7230.48 3154.94,7593.55l-6008.76 665.92c-114.86,-449.54 68.4,-2657.66 -1845.48,-4288.47l0 5813.03zm0 0z"/>
   <path class="fil2" d="M42509.03 16040.33c2216.07,0 3542.46,-1019.07 4367.42,-2248.42l-2361.65 -2086.66c-372.04,582.32 -889.66,1099.94 -1795.5,1099.94 -1051.42,0 -1908.73,-841.13 -1908.73,-2636.63l0 -64.7c0,-1682.28 792.61,-2604.29 1892.56,-2604.29 889.66,0 1374.93,501.45 1746.97,1067.6l2361.65 -2167.55c-905.84,-1294.05 -2232.24,-2135.19 -4173.32,-2135.19 -2960.13,0 -5386.49,2232.25 -5386.49,5774.71l0 274.99c0,3590.99 2410.18,5726.18 5257.09,5726.18z"/>
   <polygon class="fil2" points="47902.7,15813.87 51396.64,15813.87 51396.64,11672.91 54130.32,11672.91 54130.32,15813.87 57624.27,15813.87 57624.27,4490.91 54130.32,4490.91 54130.32,8567.18 51396.64,8567.18 51396.64,4490.91 47902.7,4490.91 "/>
   <polygon class="fil2" points="59184.62,15813.87 67563.61,15813.87 67563.61,12837.55 62646.21,12837.55 62646.21,11478.8 67126.87,11478.8 67126.87,8761.28 62646.21,8761.28 62646.21,7467.24 67482.73,7467.24 67482.73,4490.91 59184.62,4490.91 "/>
   <polygon class="fil2" points="68913.16,15813.87 77292.14,15813.87 77292.14,12837.55 72374.74,12837.55 72374.74,11478.8 76855.4,11478.8 76855.4,8761.28 72374.74,8761.28 72374.74,7467.24 77211.26,7467.24 77211.26,4490.91 68913.16,4490.91 "/>
   <path class="fil2" d="M78642.12 15813.87l3477.76 0 0 -3299.83 566.15 0 1763.15 3299.83 3914.5 0 -2264.59 -4011.56c1164.64,-630.85 1941.08,-1682.27 1941.08,-3316l0 -97.06c0,-1180.82 -355.87,-2038.13 -1019.07,-2701.34 -760.26,-760.25 -1973.43,-1197 -3720.4,-1197l-4658.58 0 0 11322.96zm3477.76 -5871.76l0 -2507.23 1148.47 0c760.26,0 1261.7,388.21 1261.7,1213.17l0 80.88c0,792.61 -501.44,1213.18 -1277.87,1213.18l-1132.3 0z"/>
   <polygon class="fil3" points="34890.18,31032.79 42703.01,31032.79 42703.01,27959.42 38384.11,27959.42 38384.11,19709.83 34890.18,19709.83 "/>
   <polygon class="fil3" points="43939.55,31032.79 47433.49,31032.79 47433.49,19709.83 43939.55,19709.83 "/>
   <polygon class="fil3" points="49026.34,31032.79 52455.58,31032.79 52455.58,26002.16 55836.29,31032.79 58974.36,31032.79 58974.36,19709.83 55561.3,19709.83 55561.3,24497.84 52342.35,19709.83 49026.34,19709.83 "/>
   <polygon class="fil3" points="60534.1,31032.79 68913.09,31032.79 68913.09,28056.47 63995.68,28056.47 63995.68,26697.72 68476.35,26697.72 68476.35,23980.21 63995.68,23980.21 63995.68,22686.16 68832.21,22686.16 68832.21,19709.83 60534.1,19709.83 "/>
   <circle class="fil0" cx="76697.34" cy="25371.62" r="4812"/>
  </g>
 </g>
</svg>
