<svg width="50" height="50" viewBox="0 0 50 50" fill="none" xmlns="http://www.w3.org/2000/svg">
<path d="M19.3359 25C19.3359 26.4504 19.9121 27.8414 20.9377 28.867C21.9633 29.8926 23.3543 30.4688 24.8047 30.4688C26.2551 30.4688 27.6461 29.8926 28.6717 28.867C29.6973 27.8414 30.2734 26.4504 30.2734 25C30.2734 23.5496 29.6973 22.1586 28.6717 21.133C27.6461 20.1074 26.2551 19.5312 24.8047 19.5312C23.3543 19.5312 21.9633 20.1074 20.9377 21.133C19.9121 22.1586 19.3359 23.5496 19.3359 25ZM46.0059 23.7402C41.377 13.9893 34.3799 9.08203 25 9.08203C15.6152 9.08203 8.62305 13.9893 3.99415 23.7451C3.80848 24.1383 3.71219 24.5677 3.71219 25.0024C3.71219 25.4372 3.80848 25.8666 3.99415 26.2598C8.62305 36.0107 15.6201 40.918 25 40.918C34.3848 40.918 41.377 36.0107 46.0059 26.2549C46.3818 25.4639 46.3818 24.5459 46.0059 23.7402ZM24.8047 33.5938C20.0586 33.5938 16.2109 29.7461 16.2109 25C16.2109 20.2539 20.0586 16.4062 24.8047 16.4062C29.5508 16.4062 33.3984 20.2539 33.3984 25C33.3984 29.7461 29.5508 33.5938 24.8047 33.5938Z" fill="black"/>
</svg>
