<svg width="68" height="68" viewBox="0 0 68 68" fill="none" xmlns="http://www.w3.org/2000/svg">
<rect width="68" height="68" rx="34" fill="white"/>
<g clip-path="url(#clip0)">
<path d="M57.044 22.3709C56.7726 21.3497 56.2378 20.4178 55.493 19.6682C54.7483 18.9187 53.8197 18.3779 52.8003 18.1C49.0476 17.0909 34.0476 17.0909 34.0476 17.0909C34.0476 17.0909 19.0476 17.0909 15.2949 18.1C14.2755 18.3779 13.3469 18.9187 12.6022 19.6682C11.8574 20.4178 11.3226 21.3497 11.0512 22.3709C10.0476 26.14 10.0476 34 10.0476 34C10.0476 34 10.0476 41.86 11.0512 45.6291C11.3226 46.6503 11.8574 47.5822 12.6022 48.3318C13.3469 49.0813 14.2755 49.6221 15.2949 49.9C19.0476 50.9091 34.0476 50.9091 34.0476 50.9091C34.0476 50.9091 49.0476 50.9091 52.8003 49.9C53.8197 49.6221 54.7483 49.0813 55.493 48.3318C56.2378 47.5822 56.7726 46.6503 57.044 45.6291C58.0476 41.86 58.0476 34 58.0476 34C58.0476 34 58.0476 26.14 57.044 22.3709Z" fill="#FF0000"/>
<path d="M29.1385 41.1373V26.8628L41.684 34.0001L29.1385 41.1373Z" fill="white"/>
</g>
<defs>
<clipPath id="clip0">
<rect width="48" height="48" fill="white" transform="translate(10 10)"/>
</clipPath>
</defs>
</svg>
