<svg width="50" height="50" viewBox="0 0 50 50" fill="none" xmlns="http://www.w3.org/2000/svg">
<path d="M36.1465 13.5286H45.7803C48.0892 13.5286 50 15.1325 50 17.2245V29.9163H27.0701V15.1325C26.2739 14.9233 25.5573 14.6444 25.0796 14.2259C25 14.2259 25 14.1562 24.9204 14.1562C24.9204 14.1562 24.9204 14.2259 24.8408 14.2259C24.2834 14.6444 23.6465 14.9233 22.9299 15.1325V29.9163H0V17.2245C0 15.1325 1.83121 13.5286 4.14013 13.5286H13.8535C12.7389 13.0404 11.7038 12.3431 10.828 11.7155C7.00637 8.50767 6.28981 4.04463 9.31529 1.53417C10.5892 0.55788 12.2611 0 14.0924 0C16.7197 0 19.4268 0.906555 21.7357 2.7894C23.0096 3.83543 24.2038 5.29986 24.9204 6.69456C25.7166 5.29986 26.9108 3.83543 28.1847 2.7894C30.414 0.906555 33.2803 0 35.828 0C37.7389 0 39.4108 0.55788 40.6051 1.53417C43.6306 4.04463 42.914 8.50767 39.0127 11.7155C38.2166 12.3431 37.1815 13.0404 36.1465 13.5286ZM21.9745 11.5063C22.293 10.8787 21.4968 7.67085 18.8694 5.50907C17.5159 4.39331 15.6847 3.76569 14.0924 3.76569C13.6146 3.76569 12.8185 3.83543 12.2611 4.25384C12.1019 4.39331 11.6242 4.67225 11.6242 5.43933C11.6242 6.34589 12.2611 7.74059 13.7739 8.92608C15.6847 10.53 18.7102 11.6457 20.9395 11.6457C21.6561 11.6457 21.9745 11.5063 21.9745 11.5063ZM28.0255 11.5063C28.0255 11.5063 28.4236 11.6457 29.0605 11.6457C31.2898 11.6457 34.3153 10.53 36.2261 8.92608C37.7389 7.74059 38.2166 6.34589 38.2166 5.43933C38.2166 4.67225 37.8185 4.39331 37.7389 4.25384C37.1815 3.83543 36.3057 3.76569 35.828 3.76569C34.3153 3.76569 32.4045 4.39331 31.051 5.50907C28.5032 7.67085 27.6274 10.8089 28.0255 11.576V11.5063ZM22.9299 50H4.14013C1.83121 50 0 48.3961 0 46.3738V33.6123H22.9299V50ZM45.7803 50H27.0701V33.6123H50V46.3738C50 48.3961 48.0892 50 45.7803 50Z" fill="black"/>
</svg>
