<?xml version="1.0" encoding="UTF-8"?>
<!DOCTYPE svg PUBLIC "-//W3C//DTD SVG 1.1//EN" "http://www.w3.org/Graphics/SVG/1.1/DTD/svg11.dtd">
<!-- Creator: CorelDRAW 2018 (64-Bit) -->
<svg xmlns="http://www.w3.org/2000/svg" xml:space="preserve" width="70.5466mm" height="60.67mm" version="1.1" style="shape-rendering:geometricPrecision; text-rendering:geometricPrecision; image-rendering:optimizeQuality; fill-rule:evenodd; clip-rule:evenodd"
viewBox="0 0 7452.54 6409.18"
 xmlns:xlink="http://www.w3.org/1999/xlink">
 <defs>
  <style type="text/css">
   <![CDATA[
    .fil0 {fill:white}
   ]]>
  </style>
 </defs>
 <g id="Слой_x0020_1">
  <metadata id="CorelCorpID_0Corel-Layer"/>
  <g id="_2197412599152">
   <g>
    <path class="fil0" d="M1825.87 6409.18l4732.37 0c85.86,0 111.79,-25.92 111.79,-111.79l0 -2981.01 -4844.15 0 0 3092.8z"/>
    <path class="fil0" d="M2273.02 1229.67c0,-852.12 1155.14,-834.25 1155.14,-37.27 0,789.57 -1155.14,691.75 -1155.14,37.27zm-596.2 -74.53c0,649.26 537.68,1192.4 1192.4,1192.4 974.22,0 1552.42,-1197.92 829.98,-1985.11 -415.09,-452.3 -1204.21,-515.27 -1719.38,52.37 -173.95,191.65 -303.01,498.65 -303.01,740.35z"/>
    <path class="fil0" d="M5552.14 1751.34c-800.93,0 -826.22,-1155.14 37.27,-1155.14 652.86,0 746.17,1155.14 -37.27,1155.14zm-1192.4 -596.2c0,1030.86 1192.42,1582.47 1980.62,862.74 744.08,-679.42 236.89,-2017.88 -788.22,-2017.88 -631.83,0 -1192.4,521.06 -1192.4,1155.14z"/>
    <path class="fil0" d="M-0 5775.72c62.59,-30.03 121.15,-45.83 185.76,-75.09l1379.28 -595.64 0 -484.41 -1565.04 -670.73 0 1825.87z"/>
    <path class="fil0" d="M6893.6 4285.21l0 1229.66 558.94 0 0 -1341.45 -447.15 0c-85.86,0 -111.79,25.92 -111.79,111.79z"/>
    <path class="fil0" d="M2533.86 1155.14c0,390.49 391.49,418.65 554.12,256.02 163.44,-163.44 145.79,-554.12 -256.02,-554.12 -180.24,0 -298.11,117.86 -298.11,298.11z"/>
    <path class="fil0" d="M5440.35 1490.51c620.81,0 458.1,-633.47 111.79,-633.47 -532.26,0 -380.68,633.47 -111.79,633.47z"/>
   </g>
  </g>
 </g>
</svg>
