<?xml version="1.0" encoding="UTF-8"?>
<!DOCTYPE svg PUBLIC "-//W3C//DTD SVG 1.1//EN" "http://www.w3.org/Graphics/SVG/1.1/DTD/svg11.dtd">
<!-- Creator: CorelDRAW 2018 (64-Bit) -->
<svg xmlns="http://www.w3.org/2000/svg" xml:space="preserve" width="63.9598mm" height="63.9336mm" version="1.1" style="shape-rendering:geometricPrecision; text-rendering:geometricPrecision; image-rendering:optimizeQuality; fill-rule:evenodd; clip-rule:evenodd"
viewBox="0 0 6474.84 6472.19"
 xmlns:xlink="http://www.w3.org/1999/xlink">
 <defs>
  <style type="text/css">
   <![CDATA[
    .fil0 {fill:white}
   ]]>
  </style>
 </defs>
 <g id="Слой_x0020_1">
  <metadata id="CorelCorpID_0Corel-Layer"/>
  <path class="fil0" d="M3082.56 4508.24l785.58 0 0 1571.16 -785.58 0 0 -1571.16zm-1249.79 0l857 0 0 1571.16 -857 0 0 -1571.16zm-1178.37 0l785.59 0 0 1571.16 -785.59 0 0 -1571.16zm2428.16 -821.29l1035.53 0 0 428.5 -1035.53 0 0 -428.5zm-1249.79 0l857 0 0 428.5 -857 0 0 -428.5zm-1428.33 0l1035.54 0 0 428.5 -1035.54 0 0 -428.5zm2071.07 -392.78c0,-240 79.46,-313.5 204.09,-438.66 125.04,-125.57 204.88,-198.88 438.66,-204.09 -7.37,330.63 -312.12,635.38 -642.75,642.75zm-1071.25 -642.75c336.85,7.5 635.33,309.5 642.75,642.75 -239.99,0 -313.5,-79.46 -438.65,-204.1 -127.14,-126.59 -197.58,-202.76 -204.1,-438.65zm892.7 107.12l-71.41 0c-48.53,-181.75 -214.25,-185.31 -214.25,-321.37l0 -607.04 4070.73 0 0 3642.24 -1856.83 0 0 -964.12c385.63,-8.59 285.67,-275.47 285.67,-999.83 0,-85.86 -57.85,-104.97 -107.12,-178.54l-1178.37 0c897.61,-1340.45 -757.55,-1211.24 -928.42,-571.33zm607.04 -2178.2c0,-115.85 -14.08,-178.54 107.12,-178.54 598.62,0 1017.73,928.42 714.17,928.42 -369.87,0 -821.29,-491.55 -821.29,-749.87zm1464.04 749.87c-303.57,0 115.54,-928.42 714.16,-928.42 345.37,0 -151.58,928.42 -714.16,928.42zm-1856.84 -821.29c0,411.4 362.39,723.04 499.92,928.42 -795.44,0 -1372.61,-152.35 -1395.35,282.93 -9.13,174.74 2.73,393.82 2.73,574.06 -173.64,-14.45 -216.84,-58.57 -387.77,40.26 -433.51,250.66 -77.95,779.72 66.4,995.28l-1178.37 0c-49.26,73.58 -107.12,92.69 -107.12,178.54 0,724.36 -99.96,991.23 285.67,999.83l0 1785.41c0,83.26 95.28,178.54 178.54,178.54l3570.82 0c242.22,0 178.53,-393.06 178.53,-642.75l2106.79 0c109.77,0 142.83,-104.6 142.83,-214.25l0 -3963.61c0,-102.41 -116.2,-187.1 -186.92,-205.87l-1205.7 -8.37c95.69,-142.9 499.92,-519.19 499.92,-892.71 0,-521 -494.33,-710.17 -1101.11,-315.52 -254.42,165.48 -311.54,340.42 -434.34,422.65 -1.64,-1.09 -839.13,-1038.1 -1386.49,-493.77 -52.59,52.3 -68.37,69.51 -98.68,151.27 -8.72,23.51 -50.29,194.69 -50.29,199.67z"/>
 </g>
</svg>
