<?xml version="1.0" encoding="UTF-8"?>
<!DOCTYPE svg PUBLIC "-//W3C//DTD SVG 1.1//EN" "http://www.w3.org/Graphics/SVG/1.1/DTD/svg11.dtd">
<!-- Creator: CorelDRAW 2018 (64-Bit) -->
<svg xmlns="http://www.w3.org/2000/svg" xml:space="preserve" width="69.8412mm" height="43.8635mm" version="1.1" style="shape-rendering:geometricPrecision; text-rendering:geometricPrecision; image-rendering:optimizeQuality; fill-rule:evenodd; clip-rule:evenodd"
viewBox="0 0 7720.37 4848.75"
 xmlns:xlink="http://www.w3.org/1999/xlink">
 <defs>
  <style type="text/css">
   <![CDATA[
    .fil0 {fill:white}
   ]]>
  </style>
 </defs>
 <g id="Слой_x0020_1">
  <metadata id="CorelCorpID_0Corel-Layer"/>
  <path class="fil0" d="M2066.57 1685.13c0,663.18 96.19,969.71 555.27,1433.31 1177.86,1189.45 3031.96,123.53 3031.96,-1160.37 0,-708.26 -34.82,-415.83 -155.96,-935.8 417.37,220.85 906.73,584.24 1192.87,951.68 328.56,421.9 474.54,445.98 -227.73,1144.23 -1467.64,1459.21 -3746.31,1453.12 -5186.04,19.43 -731.58,-728.5 -569.93,-738.51 -263.96,-1141.34 286.52,-377.23 782.47,-748.01 1209.55,-973.99 -52.46,225.22 -155.96,386.26 -155.96,662.86zm-2066.57 740.84c0,212.68 594.12,920.4 756.81,1114.79l630.93 538.82c1477.49,1025.54 3467.4,1025.54 4944.89,0 164.65,-114.28 267.27,-199.79 403.13,-337.71l220.6 -208.3c219.91,-219.56 764.01,-958.44 764.01,-1107.61 0,-169.89 -592.52,-932.73 -759.05,-1112.56 -72.46,-78.24 -131.35,-108.99 -206.65,-183.27 -156.79,-154.64 -233.02,-226.59 -422.05,-357.79 -1645.97,-1142.48 -3826.85,-1007.1 -5348.5,337.23 -290.9,257.01 -484.64,464.97 -711.83,808.85 -43.32,65.57 -272.3,437.8 -272.3,507.54z"/>
 </g>
</svg>
