<?xml version="1.0" encoding="UTF-8"?>
<!DOCTYPE svg PUBLIC "-//W3C//DTD SVG 1.1//EN" "http://www.w3.org/Graphics/SVG/1.1/DTD/svg11.dtd">
<!-- Creator: CorelDRAW 2018 (64-Bit) -->
<svg xmlns="http://www.w3.org/2000/svg" xml:space="preserve" width="70.5466mm" height="50.088mm" version="1.1" style="shape-rendering:geometricPrecision; text-rendering:geometricPrecision; image-rendering:optimizeQuality; fill-rule:evenodd; clip-rule:evenodd"
viewBox="0 0 2181.62 1548.95"
 xmlns:xlink="http://www.w3.org/1999/xlink">
 <defs>
  <style type="text/css">
   <![CDATA[
    .fil0 {fill:red}
   ]]>
  </style>
 </defs>
 <g id="Слой_x0020_1">
  <metadata id="CorelCorpID_0Corel-Layer"/>
  <g id="_2197412582320">
   <g>
    <path class="fil0" d="M65.45 1352.6l0 -1025.36 2050.72 0 0 1025.36c0,68.07 -31.21,119.99 -98.17,119.99l-1854.38 0c-66.96,0 -98.17,-51.92 -98.17,-119.99zm1505.32 -1167.17l0 -21.81c0,-64.6 119.99,-68.18 119.99,0l0 21.81c0,67.96 -119.99,67.96 -119.99,0zm305.43 -10.91c0,-77.36 119.99,-79.16 119.99,-21.82l0 43.63c0,57.34 -119.99,55.54 -119.99,-21.82zm-490.87 0c-94.19,178.01 -195.02,-67.7 -65.7,-61.6 39.75,1.87 49.51,31 65.7,61.6zm-1385.33 0l0 1221.71c0,46.21 34.86,88.35 62.14,112.39 32.92,29.02 76.27,40.32 134.21,40.32l1788.93 0c114.8,0 196.35,-72.39 196.35,-152.71l0 -1221.71c0,-112.85 -81.53,-174.53 -196.35,-174.53l-1788.93 0c-112.9,0 -196.35,63 -196.35,174.53z"/>
    <path class="fil0" d="M1014.45 1396.24c64.98,0 107.28,-15.71 164.56,-20.88 31.57,-2.85 61.17,-5.75 79.14,-8.12 67.42,-8.91 71.22,-0.73 167.59,-116.02 92.7,-110.9 255.93,-265.91 365.91,-375.84 31.35,-31.34 72.39,-55.39 84.54,-100.9 -68.25,-18.22 -223.3,-168.41 -239.98,-239.98 -48.62,12.98 -337.55,321.19 -379.06,362.69 -61.15,61.15 -130.09,122.58 -186.21,184.67 -34.91,38.62 -26.66,56.36 -39.52,145.91 -8.38,58.33 -16.98,108.81 -16.98,168.46z"/>
    <path class="fil0" d="M1668.94 479.95c84.12,158.97 112.37,169.04 250.89,261.79 23.9,-16 141.8,-125.71 141.8,-152.71 0,-85.09 -130.53,-239.98 -239.98,-239.98 -33.86,0 -118.72,108.14 -152.71,130.9z"/>
   </g>
  </g>
 </g>
</svg>
