<?xml version="1.0" encoding="UTF-8"?>
<!DOCTYPE svg PUBLIC "-//W3C//DTD SVG 1.1//EN" "http://www.w3.org/Graphics/SVG/1.1/DTD/svg11.dtd">
<!-- Creator: CorelDRAW 2018 (64-Bit) -->
<svg xmlns="http://www.w3.org/2000/svg" xml:space="preserve" width="66.9471mm" height="62.2885mm" version="1.1" style="shape-rendering:geometricPrecision; text-rendering:geometricPrecision; image-rendering:optimizeQuality; fill-rule:evenodd; clip-rule:evenodd"
viewBox="0 0 6368.18 5925.04"
 xmlns:xlink="http://www.w3.org/1999/xlink">
 <defs>
  <style type="text/css">
   <![CDATA[
    .fil0 {fill:white}
   ]]>
  </style>
 </defs>
 <g id="Слой_x0020_1">
  <metadata id="CorelCorpID_0Corel-Layer"/>
  <g id="_2197412586224">
   <g>
    <path class="fil0" d="M1979.62 3710.55c189.27,126.74 289.89,127.46 546.01,158.61 545.3,66.29 1070.48,53.98 1617.48,-41.83 216.71,-37.96 114.04,-24.18 252.31,-116.77 0,-316.18 -59.42,-915.14 -201.62,-1140.49 -211.8,-335.64 -537.56,-402.94 -1039.83,-402.94 -470.33,0 -755.74,97.22 -954.66,387.45 -147.04,214.53 -219.7,870.8 -219.7,1155.98z"/>
    <path class="fil0" d="M4227.66 2100.01c144.61,215.95 276.15,229.33 374.42,565.06 73.37,250.62 67.17,579.31 128.87,844.17 683.67,0 1060.24,-6 1610.54,-134.21 76.62,-320.06 -20.32,-992.79 -181.28,-1227.94 -379.45,-554.34 -1649.97,-469.06 -1932.55,-47.08z"/>
    <path class="fil0" d="M-0 3240.82c0,76.85 11.37,39.01 33.55,134.21 558.64,130.15 916.31,134.21 1610.54,134.21 58.9,-252.83 49.24,-567.77 121.32,-818.15 33.85,-117.59 94.87,-228.71 152.59,-317.16 75.63,-115.88 158.59,-168.18 229.39,-273.92 -175.5,-117.51 -248,-301.98 -570.4,-301.98 -576.18,0 -1151.8,-107.42 -1422.26,456.7 -91.07,189.94 -154.72,710.21 -154.72,986.08z"/>
    <path class="fil0" d="M2382.25 1194.09c0,648.82 835.79,1095.83 1368.45,563.17 741.12,-741.12 -385.25,-1867.48 -1126.37,-1126.36 -108.83,108.83 -242.09,361.45 -242.09,563.18z"/>
    <path class="fil0" d="M5167.14 1596.72c864.25,0 1105.4,-1201.05 323.26,-1531.24 -662.48,-279.68 -1328.9,386.74 -1049.22,1049.23 103.16,244.35 394.87,482.01 725.97,482.01z"/>
    <path class="fil0" d="M402.63 825.01c0,406.91 395.1,771.71 805.27,771.71 378.24,0 771.71,-329.6 771.71,-704.6l0 -234.88c0,-266.62 -370.88,-637.5 -637.5,-637.5 -306.94,0 -486.64,-17.71 -731.45,241.58 -117.27,124.21 -208.02,329.93 -208.02,563.69z"/>
    <path class="fil0" d="M2315.14 4884.91c0,308.5 335.54,263.49 335.54,469.73 0,210.15 -183.58,570.4 67.1,570.4 174.59,0 329.69,-201.32 436.19,-201.32 213.95,0 289.34,201.32 503.29,201.32 295.72,0 -24.26,-456.38 77.32,-624.65 81.46,-134.92 325.32,-222.18 325.32,-348.39 0,-315.6 -328.76,-135.03 -536.85,-234.87 -75.51,-55.32 -101.28,-161.98 -142.49,-260.14 -248,-590.59 -467.3,203.21 -511.43,243.72 -129.3,118.72 -553.98,-35.59 -553.98,184.19z"/>
    <path class="fil0" d="M4294.77 4515.82c0,204.28 228.11,219.91 325.54,381.72 162.04,269.12 -300.83,440.69 110.65,658.42 529.51,-280.17 323.62,-316.47 749.72,-75.82 60.08,33.93 110.17,59.73 151.18,55.61 256.7,-25.8 72.14,-388.01 72.14,-583.74 0,-108.84 150.36,-172.19 228.03,-242.14 149.33,-134.5 122.77,-111.28 107.5,-294.7 -74.75,-17.42 -181,-49.65 -243.83,-58.15 -163.42,-22.09 -151.4,10.54 -259.47,-42.51 -115.75,-41.9 -15.26,52.43 -103.58,-97.74 -59.86,-101.79 -99.5,-372 -265.51,-372 -191.88,0 -213.26,373.39 -310.36,461.35 -139.4,126.28 -562.01,-41.49 -562.01,209.7z"/>
    <path class="fil0" d="M301.98 4515.82c28.16,105.48 84.02,141.23 158.47,210.61 50,46.59 210.6,150.44 210.6,192.02 0,225.71 -67.1,229.19 -67.1,503.29 0,330.52 476.15,-100.66 570.39,-100.66 124.53,0 218.6,89.38 321.13,150.41 181.27,107.88 168.81,82.61 316.37,-16.2 -9.66,-433.99 -264.9,-416.58 77.05,-694.67 113.02,-91.92 191.38,-93.36 191.38,-244.81 0,-180.19 -341.09,-167.76 -536.84,-167.76 -69.96,-104.49 -86.89,-130.72 -138.69,-263.95 -22.5,-57.85 -88.15,-239.35 -163.29,-239.35 -284.39,0 -202.84,317.29 -351.98,453.29 -155.86,142.11 -436.67,-67.29 -587.5,217.76z"/>
   </g>
  </g>
 </g>
</svg>
